<svg width="24" height="24" viewBox="0 0 24 24" fill="none" xmlns="http://www.w3.org/2000/svg">
<path d="M8.56527 2.59596H1.96991C1.43424 2.59596 1 3.0302 1 3.56586V10.1612C1 10.6969 1.43424 11.1311 1.96991 11.1311H8.56527C9.10094 11.1311 9.53518 10.6969 9.53518 10.1612V3.56586C9.53518 3.0302 9.10094 2.59596 8.56527 2.59596Z" stroke="white" stroke-width="1.5" stroke-linecap="round" stroke-linejoin="round"/>
<path d="M16.2206 1.51409L11.557 6.17772C11.1782 6.55649 11.1782 7.1706 11.557 7.54937L16.2206 12.213C16.5994 12.5918 17.2135 12.5918 17.5923 12.213L22.2559 7.54937C22.6347 7.1706 22.6347 6.55649 22.2559 6.17772L17.5923 1.51409C17.2135 1.13532 16.5994 1.13532 16.2206 1.51409Z" stroke="white" stroke-width="1.5" stroke-linecap="round" stroke-linejoin="round"/>
<path d="M8.56527 14.2348H1.96991C1.43424 14.2348 1 14.6691 1 15.2047V21.8001C1 22.3358 1.43424 22.77 1.96991 22.77H8.56527C9.10094 22.77 9.53518 22.3358 9.53518 21.8001V15.2047C9.53518 14.6691 9.10094 14.2348 8.56527 14.2348Z" stroke="white" stroke-width="1.5" stroke-linecap="round" stroke-linejoin="round"/>
<path d="M20.2041 14.2348H13.6088C13.0731 14.2348 12.6389 14.6691 12.6389 15.2047V21.8001C12.6389 22.3358 13.0731 22.77 13.6088 22.77H20.2041C20.7398 22.77 21.1741 22.3358 21.1741 21.8001V15.2047C21.1741 14.6691 20.7398 14.2348 20.2041 14.2348Z" stroke="white" stroke-width="1.5" stroke-linecap="round" stroke-linejoin="round"/>
</svg>
