<svg width="32" height="22" viewBox="0 0 32 22" fill="none" xmlns="http://www.w3.org/2000/svg">
<path d="M22.1764 13.8979L24.6715 12.7915C24.7284 12.7658 24.7943 12.7833 24.8329 12.8324C25.2063 13.3207 25.7609 13.5651 26.3158 13.5651C26.8662 13.5651 27.4166 13.3245 27.7904 12.8425L27.7989 12.8313C27.8175 12.8075 27.8435 12.7907 27.8728 12.7835C27.902 12.7762 27.9329 12.7791 27.9604 12.7915L30.8557 14.0824M9.67934 13.8979L7.18417 12.7915C7.12727 12.7658 7.06144 12.7833 7.02276 12.8324C6.64936 13.3207 6.09484 13.5651 5.53994 13.5651C4.98951 13.5651 4.43908 13.3245 4.06531 12.8425L4.05675 12.8313C4.03821 12.8075 4.01221 12.7907 3.98294 12.7835C3.95366 12.7762 3.92281 12.7791 3.89534 12.7915L1 14.0824M10.9673 21V18.0887M21.2734 18.0887V21M16.1205 21V14.959M29.1999 7.70373C29.1999 9.57818 27.9038 11.2068 26.3046 11.2068C24.7057 11.2068 23.4093 9.5778 23.4093 7.70373C23.4093 5.82966 24.7054 4.87347 26.3046 4.87347C27.9038 4.87347 29.1999 5.82929 29.1999 7.70373ZM2.65576 7.70373C2.65576 9.57818 3.95187 11.2068 5.5511 11.2068C7.15033 11.2068 8.44644 9.5778 8.44644 7.70373C8.44644 5.82966 7.15033 4.87347 5.5511 4.87347C3.95187 4.87347 2.65576 5.82929 2.65576 7.70373ZM20.2097 4.99695C20.2097 7.64423 18.3791 9.94451 16.1205 9.94451C13.8622 9.94451 12.0313 7.64423 12.0313 4.99695C12.0313 2.34967 13.8619 1 16.1205 1C18.3788 1 20.2097 2.35004 20.2097 4.99695ZM24.5696 20.9479V16.8483C24.5696 15.6679 23.8753 14.5979 22.7971 14.117L18.4587 12.1823C18.42 12.165 18.3766 12.1613 18.3355 12.1716C18.2943 12.1819 18.2578 12.2057 18.2318 12.2392L16.1209 14.9594L14.0415 12.2403C14.0156 12.2065 13.9791 12.1823 13.9378 12.1718C13.8965 12.1613 13.8528 12.165 13.8139 12.1823L9.44912 14.1185C8.36834 14.5983 7.67137 15.6697 7.67137 16.852V20.9476C7.67137 20.9762 7.6948 20.9996 7.72344 20.9996H24.5176C24.5462 21 24.5696 20.9766 24.5696 20.9479Z" stroke="white" stroke-width="1.5" stroke-miterlimit="10"/>
</svg>
