<svg width="24" height="22" viewBox="0 0 24 22" fill="none" xmlns="http://www.w3.org/2000/svg">
<path d="M20.0546 5.61456H3.48538C2.11274 5.61456 1 6.72731 1 8.09995V18.0415C1 19.4141 2.11274 20.5269 3.48538 20.5269H20.0546C21.4273 20.5269 22.54 19.4141 22.54 18.0415V8.09995C22.54 6.72731 21.4273 5.61456 20.0546 5.61456Z" stroke="white" stroke-width="1.5" stroke-linejoin="round"/>
<path d="M19.8144 5.61459V4.06122C19.8142 3.68024 19.73 3.30398 19.5678 2.95928C19.4055 2.61459 19.1691 2.30996 18.8755 2.06713C18.582 1.8243 18.2384 1.64926 17.8694 1.55449C17.5004 1.45972 17.115 1.44756 16.7408 1.51888L3.10429 3.84634C2.51211 3.95919 1.97787 4.27516 1.59372 4.73975C1.20957 5.20435 0.999592 5.78843 1 6.39127V8.92843" stroke="white" stroke-width="1.5" stroke-linejoin="round"/>
<path d="M17.5693 14.7277C17.2416 14.7277 16.9212 14.6305 16.6487 14.4484C16.3763 14.2664 16.1639 14.0076 16.0385 13.7048C15.9131 13.4021 15.8803 13.0689 15.9442 12.7475C16.0081 12.4261 16.1659 12.1308 16.3977 11.8991C16.6294 11.6674 16.9246 11.5096 17.246 11.4457C17.5674 11.3817 17.9006 11.4145 18.2034 11.5399C18.5061 11.6654 18.7649 11.8777 18.947 12.1502C19.129 12.4227 19.2262 12.743 19.2262 13.0707C19.2262 13.5102 19.0516 13.9316 18.7409 14.2424C18.4302 14.5531 18.0087 14.7277 17.5693 14.7277Z" fill="white"/>
</svg>
